# xmcd
#
# Track frame offsets:
#	150
#	13582
#	28632
#	44385
#	59005
#	71265
#	88107
#	103505
#	119127
#	136022
#
# Disc length: 2044 seconds
#
# Revision: 4
# Processed by: cddbd v1.5.2PL0 Copyright (c) Steve Scherf et al.
# Submitted via: EZCDAudioConverter 6.0.5.1
#
DISCID=8607fa0a
DTITLE=Mcbride and The Ride
DYEAR=1994
DGENRE=Country
TTITLE0=Teardrops
TTITLE1=I Can't Dance
TTITLE2=Been There
TTITLE3=I'd Be Lyin'
TTITLE4=Somebody Will
TTITLE5=High Hopes and Empty Pockets
TTITLE6=Before I Fall In Love
TTITLE7=Nothin' Nobody Can Say
TTITLE8=He's Living My Dreams
TTITLE9=I'll See You Again Someday
EXTD=
EXTT0=
EXTT1=
EXTT2=
EXTT3=
EXTT4=
EXTT5=
EXTT6=
EXTT7=
EXTT8=
EXTT9=
PLAYORDER=
